<?xml version="1.0" encoding="utf-8"?>
<!-- Generator: Adobe Illustrator 22.1.0, SVG Export Plug-In . SVG Version: 6.00 Build 0)  -->
<svg version="1.1" id="Layer_1" xmlns="http://www.w3.org/2000/svg" xmlns:xlink="http://www.w3.org/1999/xlink" x="0px" y="0px"
	 viewBox="0 0 792 612" style="enable-background:new 0 0 792 612;" xml:space="preserve">
<style type="text/css">
	.st0{fill:#357ACB;}
</style>
<g>
	<path class="st0" d="M273.4,1H21.7c0,0,9,48.5,38.8,93.8s33.6,109.2,15.7,150.5s-59,25.9-76.2,59.9v38c0,9.4,7,17,15.7,17h250.9
		c0,0,96.3-138.4,105.3-242C380.9,14.8,316.7,39,273.4,1z"/>
	<path class="st0" d="M705.7-6.9c-28.7,0-54.2,14-69.9,35.6c-10.3,14.2-16.4,31.7-16.4,50.6c0,47.6,38.6,86.3,86.3,86.3
		c9,0,17.6-1.4,25.8-3.9c35-11,60.5-43.7,60.5-82.3C791.9,31.7,753.3-6.9,705.7-6.9z"/>
</g>
</svg>
